<?xml version="1.0" encoding="UTF-8" standalone="no"?>
<!-- Created with Inkscape (http://www.inkscape.org/) -->

<svg
   width="92.774414mm"
   height="37.00206mm"
   viewBox="0 0 92.774414 37.00206"
   version="1.1"
   id="svg5"
   xml:space="preserve"
   inkscape:version="1.2.2 (b0a8486541, 2022-12-01)"
   sodipodi:docname="taly.svg"
   inkscape:export-filename="taly-logo2.svg"
   inkscape:export-xdpi="96"
   inkscape:export-ydpi="96"
   xmlns:inkscape="http://www.inkscape.org/namespaces/inkscape"
   xmlns:sodipodi="http://sodipodi.sourceforge.net/DTD/sodipodi-0.dtd"
   xmlns="http://www.w3.org/2000/svg"
   xmlns:svg="http://www.w3.org/2000/svg"><sodipodi:namedview
     id="namedview7"
     pagecolor="#ffffff"
     bordercolor="#000000"
     borderopacity="0.25"
     inkscape:showpageshadow="2"
     inkscape:pageopacity="0.0"
     inkscape:pagecheckerboard="0"
     inkscape:deskcolor="#d1d1d1"
     inkscape:document-units="mm"
     showgrid="false"
     inkscape:zoom="4.323827"
     inkscape:cx="350.15277"
     inkscape:cy="242.72479"
     inkscape:window-width="1880"
     inkscape:window-height="979"
     inkscape:window-x="16"
     inkscape:window-y="56"
     inkscape:window-maximized="0"
     inkscape:current-layer="layer1" /><defs
     id="defs2" /><g
     inkscape:label="Layer 1"
     inkscape:groupmode="layer"
     id="layer1"
     transform="translate(-54.282033,-49.498732)"><g
       id="g1029"
       inkscape:label="Chipmunk"
       transform="translate(4.0264324,-0.25701038)"><path
         style="opacity:1;fill:#c05326;fill-opacity:1;stroke-width:0.264583"
         d="m 106.75385,73.185577 c 0,0 -9.696361,-6.496131 -5.82221,-14.921014 3.20239,-6.96404 12.72797,-1.573219 12.72797,-1.573219 0,0 -2.16432,-7.790613 -12.84987,-6.858105 -10.925929,0.953486 -16.37441,8.885054 -11.160852,17.696027 3.141105,5.308502 10.420572,7.158762 13.701512,8.357095 2.90324,1.060379 3.40345,-2.700784 3.40345,-2.700784 z"
         id="path3274"
         sodipodi:nodetypes="cscsssc"
         inkscape:label="Tail" /><path
         style="display:inline;opacity:1;fill:#c05326;fill-opacity:1;stroke-width:0.264583"
         d="m 99.982212,80.982693 c 0,0 -4.623169,0.123424 -4.512983,2.12019 0.05494,0.99558 0.08556,1.065534 0.81779,2.180772 0.772506,1.176587 0.121154,2.362498 -1.756732,0.514901 -0.8113,-0.798215 -2.453365,-2.665386 -1.635577,-4.482693 0.776608,-1.725797 3.242616,-2.538886 5.451922,-2.665383 1.180988,-0.06762 2.635098,0.757212 1.63558,2.332213 z"
         id="path3265"
         sodipodi:nodetypes="csssssc"
         inkscape:label="Back Leg" /><path
         style="opacity:1;fill:#e66a39;fill-opacity:1;stroke-width:0.264583"
         d="m 130.03269,84.253846 c -1.65279,-0.707928 -3.57404,-3.755768 -2.84711,-5.754809 1.77916,-0.473145 2.24195,0.230022 3.03742,1.514565 2.36985,3.826889 8.72006,1.943099 8.67407,3.829156 -0.60712,1.43702 -4.9603,1.971906 -8.86438,0.411088 z"
         id="path2292"
         sodipodi:nodetypes="ccscc"
         inkscape:label="Front Leg" /><path
         style="fill:#e66a39;fill-opacity:1;stroke-width:0.264583"
         d="m 116.87019,67.854808 c -3.33173,0.242305 -6.94293,0.876535 -9.63173,3.331731 -1.28037,1.169133 -0.12116,1.877882 -3.87692,4.179805 -2.70253,1.656391 -8.381762,3.748356 -4.482694,5.997118 1.668354,0.962214 9.851134,1.364654 13.508654,-1.090385 4.42212,-2.968267 4.04882,-1.678971 10.35865,-4e-6 4.44893,1.183806 8.33852,0.09428 8.8526,-4.588274 -0.27742,-3.983611 -7.4079,-7.747467 -14.72856,-7.829991 z"
         id="path1425"
         sodipodi:nodetypes="cssssscc"
         inkscape:label="Body" /><path
         style="fill:#ed7c50;fill-opacity:1;stroke-width:0.264583"
         d="m 130.52239,72.58587 c 0,0 -2.34966,-1.824784 -2.05605,-5.054454 0.0604,-0.664463 3.68431,0.330251 4.82674,2.419001 4.66286,0.03496 6.96523,0.894215 9.73694,5.419686 -2.78762,5.789455 -10.4254,3.098848 -11.87302,2.320813 -1.22963,-1.13794 -0.89443,-3.819297 -0.63461,-5.105046 z"
         id="path1273"
         sodipodi:nodetypes="cscccc"
         inkscape:label="Head" /></g><text
       xml:space="preserve"
       style="font-style:normal;font-variant:normal;font-weight:bold;font-stretch:normal;font-size:22.5778px;font-family:'PT Sans';-inkscape-font-specification:'PT Sans, Bold';font-variant-ligatures:normal;font-variant-caps:normal;font-variant-numeric:normal;font-variant-east-asian:normal;opacity:1;fill:#2a2a2a;fill-opacity:1;stroke-width:0.265;stroke-dasharray:none"
       x="54.03368"
       y="80.745308"
       id="text4809"><tspan
         sodipodi:role="line"
         style="font-style:normal;font-variant:normal;font-weight:bold;font-stretch:normal;font-size:22.5778px;font-family:'PT Sans';-inkscape-font-specification:'PT Sans, Bold';font-variant-ligatures:normal;font-variant-caps:normal;font-variant-numeric:normal;font-variant-east-asian:normal;fill:#2a2a2a;fill-opacity:1;stroke-width:0.265;stroke-dasharray:none"
         x="54.03368"
         y="80.745308"
         id="tspan460">Taly</tspan></text></g></svg>
